<svg xmlns="http://www.w3.org/2000/svg" width="265" height="394" fill="none" viewBox="0 0 265 394">
    <g opacity=".3">
        <path fill="#FFDE81" d="M132.17 394c72.995 0 132.17-7.974 132.17-17.811 0-9.838-59.175-17.812-132.17-17.812C59.174 358.377 0 366.351 0 376.189 0 386.026 59.174 394 132.17 394z" opacity=".67"/>
        <path fill="#F9AE81" d="M62.716 164.548s-12.636-25.936-6.08-43.096c5.628-2.169 10.505-6.813 13.018-5.851 2.513.963 6.984-2.815-1.647-6.593-8.954-2.939-8.825-.491-8.825-.491s1.157-16.83-8.398-15.68C45.157 95 45.551 98.99 45.551 98.99s-3.043-8.357-6.46-4.398c-3.418 3.959-3.14 6.955-3.14 6.955s-6.06-4.23-7.687 5.057c-1.674-.646-8.915 4.915-.575 13.214 1.188 4.113.846 4.52 7.016 8.434 0 0-35.37 49.011 1.938 71.899 18.734 6.2 30.253-13.866 30.253-13.866l-1.57-9.687-2.61-12.051z"/>
        <path fill="#F79E77" d="M36.636 200.152c1.332.437 2.7.757 4.09.956l7.164-9.132c-37.47-3.746-13.199-63.723-13.199-63.723s-35.37 49.011 1.945 71.899z"/>
        <path fill="#9F665C" d="M65.3 176.573l-.769-3.558c-12.617 2.583-33.56 3.28-43.135-16.436-3.876 14.912-3.043 32.368 15.22 43.573 18.735 6.2 30.254-13.866 30.254-13.866l-1.57-9.713z" opacity=".23"/>
        <path fill="#FFBD00" d="M92.846 135.635s-34.963 22.403-38.115 24.637c2.242 4.934 6.725 10.334 6.725 10.334l31.39-34.971z"/>
        <path fill="#060606" d="M155.569 301.868s23.308 35.843 34.963 63.626c3.585.891 14.341-.898 14.341-.898s-10.756-69.005-9.864-78.861c-10.757 2.687-39.44 16.133-39.44 16.133zM41.72 297.386s19.723 62.728 22.41 72.59c4.038.891 10.757-.898 10.757-.898s1.796-53.771 3.585-65.421c-.897-2.687-36.752-6.271-36.752-6.271z"/>
        <path fill="#FFBD00" d="M98.674 131.185s-87.556 53.318-63.646 173.402c4.78 4.779 22.107 14.937 33.464 16.726 2.39-9.558 4.78-18.515 4.78-18.515l10.763 23.262s62.154 12.548 112.35-36.437c-4.18-21.512-9.561-87.831 11.357-136.216-1.195-4.184-12.553-25.09-33.464-35.849-13.16 4.185-75.604 13.627-75.604 13.627z"/>
        <path fill="#F9AE81" d="M182.462 94.858c-1.563-2.345-5.168-2.816-8.734-2.584.239-3.06.556-6.245.989-9.48-.003.028-.003.056 0 .084l-.285-.097c-31.377-24.199-63.646-17.03-63.646-17.03s-5.381 10.753-5.381 18.819c-1.344.898-4.031 22.604-4.031 22.604s-7.753 15.757.601 27.705c6.867 0 27.488 4.178 71.708-14.938-.462-5.657-.617-11.336-.465-17.011 5.136-1.788 11.454-4.76 9.244-8.072z"/>
        <path fill="#060606" d="M66.224 368.477s-17.333 10.753-25.7 12.549c-.593 2.983 4.782 4.178 11.952 1.788 7.171-2.389 19.13-11.947 19.13-14.337 0-2.389-5.382 0-5.382 0zM200.642 363.995s17.332 10.76 25.698 12.549c.595 2.99-4.78 4.184-11.951 1.795-7.171-2.39-19.122-11.954-19.122-14.344 0-2.389 5.375 0 5.375 0z"/>
        <path fill="#FFDE81" d="M164.981 201.947s11.202 21.06 18.373 55.114c0 0-9.807 57.052-96.903 69.6 7.274 2.984 76.288 3.436 109.927-37.038-2.261-29.875-4.057-66.319-2.862-75.877-7.171-2.389-28.535-11.799-28.535-11.799z"/>
        <path fill="#F49772" d="M162.442 88.884S148.695 138.47 109.23 131.3c-3.55-.869-7.035-1.987-10.427-3.345.615 2.495 1.686 4.855 3.159 6.962 6.867 0 27.488 4.178 71.708-14.938-.737-9.676-.679-19.396.175-29.062l-11.403-2.034z"/>
        <path fill="#7C3C3D" d="M160.498 70.213s-.446 21.506-2.242 28.229h10.757l4.037-5.812s13.444-1.796 11.629-7.169c-1.816-5.373-10.001-2.583-10.001-2.583l-14.18-12.665z"/>
        <path fill="#FFDE81" d="M171.706 133.394l-72.612 13.439-3.586-8.066s-24.206 18.819-41.462 39.879c-3.524 5.677-6.332 11.768-8.36 18.134 4.478 11.464 12.392 32.905 7.986 30.703-4.18-2.086-9.516-6.801-12.359-9.449-2.015 20.738 2.43 38.62 8.476 40.816 9.858 3.584 49.305-8.958 50.203-9.855 80.675-35.85 83.336-86.03 83.336-86.03l-11.622-29.571z"/>
        <path fill="#F9AE81" d="M217.897 165.652s12.074 65.873-27.366 69.897c-40.344.898-27.494-43.612-31.08-48.088-7.772 3.585 58.446-21.809 58.446-21.809z"/>
        <path fill="#FFDE81" d="M193.516 192.24c7.482 6.344 16.496 10.617 26.144 12.394 2.694-7.169 8.522-32.11-5.226-47.642-10.756-11.948-31.08 5.974-31.08 5.974l5.982 14.931 4.18 14.343z"/>
        <path fill="#FFBD00" d="M189.336 177.897l4.187 14.343s.697.601 2.06 1.544c4.774-13.678 20.951-29.475 20.951-29.475l-29.937 6.729 2.739 6.859z"/>
        <path fill="#9F665C" d="M182.036 183.277l-5.446-1.938c-8.159 3.068-14.858 5.561-17.042 6.252 3.017 4.856-7.365 43.063 23.535 47.525-17.611-12.916-1.047-51.839-1.047-51.839zm-22.488 4.333c-.025-.054-.057-.104-.097-.149-.911.42-.795.433.097.149z" opacity=".23"/>
        <path fill="#F79E77" d="M189.336 177.897s-17.326 21.512-40.053 20.317c-7.752 0-8.398-8.964-8.398-8.964l48.451-11.353z"/>
        <path fill="#7C3C3D" d="M158.482 100.457l5.601-.226s-9.632 16.358-16.357 17.256c3.359-4.036 10.756-17.03 10.756-17.03zM125.69 79.92s.297-4.482 2.687-4.482c2.391 0 8.961 2.693 9.264 6.574-1.796-.6-11.951-2.092-11.951-2.092zM110.974 75.14s.22 2.468-.226 3.585-5.168 1.796-5.168 1.796c.334-1.298 1.011-2.482 1.96-3.428.949-.947 2.135-1.62 3.434-1.952zM125.535 85.448s-.22 7.395 6.499 6.723c5.814-1.795 3.366-6.277 3.366-6.277h1.344s-1.796-1.64-2.688-.891c-.304 1.04 2.539 4.52-2.694 6.044-3.023-.038-4.819-1.679-5.827-5.599zM109.959 83.77s-.646 4.139-3.469 3.92c-2.241-.337-.898-4.593-.898-4.593l-1.796.556 1.015.336s-.562 4.372 1.679 4.372c2.242 0 3.922-1.796 3.469-4.592z"/>
        <path fill="#DE705C" d="M104.992 113.451s31.655 14.04 31.377-13.44h1.492s-1.195 20.608-17.029 18.219c-15.834-2.39-15.84-4.779-15.84-4.779z"/>
        <path fill="#DE705C" d="M136.072 94.632s-5.168 1.123-1.344 4.708c3.825 3.584 8.961.891 7.391-2.015-1.57-2.907-6.047-2.693-6.047-2.693z"/>
        <path fill="#F79E77" d="M193.516 192.24s20.77 17.321 12.701 36.592c4.929-3.138 12.552-17.03 11.202-24.644-2.688-3.139-23.903-11.948-23.903-11.948z"/>
        <path fill="#9F665C" d="M45.92 100.554s3.63 11.218.064 14.899c-3.566 3.681-8.398-12.561-8.398-12.561s3.385 10.287 3.262 14.679c-.135 5.05-10.536-8.828-10.536-8.828s7.106 12.787 2.067 12.787c-5.246-.091-7.339-9.042-7.339-9.042 1.828 8.609 6.254 11.263 8.954 10.056 2.7-1.208.459-6.219.459-6.219s4.276 3.874 6.201 3.009c1.926-.865 1.777-3.804 1.777-3.804.29.661.82 1.187 1.484 1.471.663.285 1.41.306 2.089.06 2.68-.736 2.584-6.368 2.584-6.368s-1.59-8.073-2.688-10.139" opacity=".23"/>
        <path fill="#DE705C" d="M98.802 127.956s-5.684 3.377.291 18.909c17.333-1.194 90.54-18.38 90.54-18.38l-7.183-5.96-8.954-5.458.174 2.913s-42.993 17.45-71.547 14.647c-1.105-1.944-3.32-6.671-3.32-6.671z"/>
        <path fill="#535866" d="M94.907 162.668c-.001.531-.16 1.05-.456 1.491-.296.441-.716.785-1.207.987-.492.202-1.032.255-1.553.15-.52-.104-.999-.361-1.374-.737-.375-.376-.63-.854-.734-1.375-.103-.521-.05-1.061.154-1.552.204-.49.549-.909.99-1.204.442-.295.961-.453 1.493-.453.353 0 .703.07 1.03.205.326.136.623.334.872.585.25.25.448.547.582.873.135.327.204.677.203 1.03zM81.45 195.521c.002.533-.156 1.055-.451 1.499-.295.444-.716.79-1.209.994-.492.205-1.034.259-1.558.155-.523-.104-1.003-.36-1.38-.737-.378-.377-.634-.858-.738-1.381-.104-.523-.05-1.065.155-1.557.204-.492.55-.913.995-1.208.444-.296.966-.453 1.499-.452.712.002 1.395.286 1.898.789.504.504.788 1.186.79 1.898zM75.488 246.605c.001.533-.156 1.055-.451 1.499-.296.444-.717.79-1.21.995-.492.204-1.034.258-1.557.154-.523-.103-1.004-.36-1.38-.737-.378-.377-.635-.857-.739-1.38-.103-.523-.05-1.065.155-1.558.205-.492.551-.913.995-1.208.444-.296.966-.453 1.5-.451.352 0 .702.069 1.028.204.326.135.622.333.872.583.25.249.447.545.582.871.135.326.205.675.205 1.028z"/>
        <path fill="#DE705C" d="M99.093 146.833c17.333-1.195 90.54-18.38 90.54-18.38l-7.183-5.961M113.396 86.85s-7.326 15.919-6.945 20.491c1.532 1.531 10.007-1.724 10.007-1.724s.575.187.097.646c-.478.458-8.521 3.229-10.821 2.105-1.628-.936 4.141-16.345 7.662-21.518z"/>
        <path fill="#535866" d="M99.093 200.604l136.854-31.07h-23.903s-14.348-36.412-59.169-29.275c-33.464 4.785-38.245 50.787-38.245 50.787l-15.537 9.558z"/>
        <path fill="#6E767E" d="M142.719 146.233s-20.918 15.538-23.308 40.04c21.512-1.789 62.748-15.499 62.748-15.499l-28.684-26.285s-3.585-3.036-10.756 1.744z"/>
        <path fill="#fff" d="M147.377 146.329s-17.804 10.811-21.842 24.251c9.413 0 34.065-17.024 34.065-17.024s-7.294-9.455-12.223-7.227z"/>
        <path fill="#535866" d="M151.085 143.249l-5.827-7.614 8.521-3.139.892 9.855-3.586.898z"/>
        <path fill="#F49772" d="M110.773 65.731s43.232-.33 49.55 20.35c2.3-10.333.175-15.868.175-15.868s-29.743-14.492-49.725-4.482z"/>
        <path fill="#FFDE81" d="M210.429 35.714c-.601-13.446-18.528-19.717-25.699-11.625.898-3.584-2.093-19.717-25.104-23.598-22.107-3.287-32.269 11.948-32.269 11.948s-18.225-11.354-28.09 1.491c-5.975 9.862 4.187 24.496 20.324 20.02-2.991 8.661-8.669 29.573-8.818 31.814 0 0 32.269-7.169 63.646 17.03l.285.097c1.292-9.772 3.533-20.066 7.338-29.224 2.087.265 26.888 5.044 28.387-17.953z"/>
        <path fill="#FFBD00" d="M188.141 38.697c-1.718 1.55-4.432 2.848-7.416 3.914l7.416-3.914-4.186-6.568s7.752-21.512-13.747-28.08c0 0 13.747 8.396 7.752 19.117-5.995 10.72-28.089 16.145-43.626 8.395-5.976-4.178-7.171-11.948-7.171-11.948l-.297-3.584s-19.426 21.506-28.987 6.575c2.985 8.957 9.316 16.145 21.693 11.347 2.035.38 5.117 1.485 8.857 2.783l.524 15.739 4.057-14.208c7.358 2.383 16.273 4.708 24.632 4.036 2.391 1.134 4.547 2.707 6.357 4.637l-11.253 23.54c7.776 3.029 15.076 7.161 21.674 12.27l.284.097c1.071-8.837 3.101-17.53 6.053-25.93.213-.987.446-1.904.685-2.712l.349.052c.084-.213.161-.433.252-.646 1.938.272 23.018 4.314 27.578-12.916 0-.278.033-.555.033-.846-4.167 10.204-17.934 4.798-21.513-1.15z"/>
        <path fill="#F49772" d="M106.594 118.83s-7.184 2.009-2.584 6.032c4.599 4.024 9.768 2.726 11.35-.29 0 .716-4.599 6.897-11.066 1.44-2.171-2.157-5.168-5.606 2.3-7.182z"/>
        <path fill="#F9AE81" d="M45.92 100.554s-4.161-26.724-3.263-29.062c.898-2.338 4.903-6.542 15.168 26.181-.032-.006-1.434 30.851-11.906 2.881z"/>
    </g>
</svg>
