<svg width="532" height="528" viewBox="0 0 532 528" fill="none" xmlns="http://www.w3.org/2000/svg">
<path d="M256.583 5.93236C235.618 17.8534 154.226 64.921 147.649 69.0318C143.744 71.4982 137.783 74.7868 134.494 76.431C131.206 78.0753 99.759 96.368 64.6124 116.716L0.690872 153.918L0.0742658 249.903C-0.13127 302.52 0.0742657 345.683 0.896408 345.683C1.51301 345.683 8.29569 342.188 15.695 337.667C31.7267 328.418 41.5924 322.868 57.2131 314.236C63.3792 310.742 89.2767 295.737 114.763 280.939C169.23 249.081 198.622 232.021 211.365 224.828C216.503 221.95 230.274 214.14 242.195 207.357C264.393 194.408 269.12 193.175 274.875 198.519C276.725 200.163 280.425 202.63 283.302 203.863C290.29 206.946 290.085 206.946 373.738 255.658C403.746 273.129 432.315 289.777 437.454 292.654C442.592 295.532 450.403 299.848 454.924 302.52C459.446 305.192 466.023 308.686 469.312 310.742L475.478 314.236L476.094 370.963C476.3 402.41 476.094 427.897 475.478 427.897C474.245 427.897 468.079 424.403 449.786 414.126C424.505 399.738 399.841 385.351 389.564 379.185C381.137 374.046 376.204 372.402 372.71 373.224C369.011 374.252 324.409 399.122 320.504 402.616C318.86 403.849 325.026 408.782 336.741 414.948C342.907 418.442 379.082 439.201 416.9 461.193C454.719 483.186 489.865 503.534 495.004 506.411C513.707 516.894 520.696 521.004 524.806 523.676C527.067 525.321 529.534 526.554 530.356 526.554C531.384 526.554 532 442.901 532 340.75C532 194.614 531.384 154.535 529.534 152.89C528.095 151.863 523.368 148.985 519.257 146.519C514.941 144.052 507.952 140.147 503.842 137.886C499.526 135.42 473.217 120.21 445.264 103.973C417.517 87.7355 394.291 75.4033 392.236 74.3757C390.18 73.348 389.152 71.9092 388.125 71.2926C387.097 69.8539 386.07 70.2649 382.576 67.3875C378.26 65.3321 350.718 49.7114 321.326 32.652C292.14 15.387 267.476 1.20505 266.859 0.999519C266.243 0.793984 261.721 2.84933 256.583 5.93236ZM276.314 73.348C281.247 76.2255 289.674 80.9528 295.223 83.8303C307.35 90.613 416.9 153.918 421.011 156.59C422.655 157.823 426.355 159.673 429.232 161.112C432.11 162.55 435.81 164.606 437.454 166.045C439.098 167.278 447.114 171.8 454.924 176.116C462.94 180.432 470.956 184.954 473.011 186.187C476.094 188.037 476.506 191.942 476.506 217.634C476.506 233.871 475.889 247.026 475.272 247.026C474.656 247.026 460.063 238.804 443.003 228.733C425.738 218.867 407.651 208.385 402.513 205.507C397.374 202.63 389.564 198.314 385.042 195.642C380.52 192.97 373.121 188.859 368.599 186.393C364.078 183.721 339.619 169.539 314.133 154.74C288.646 139.736 266.448 128.02 264.393 128.432C262.543 129.048 232.535 145.902 197.594 166.25C162.858 186.598 130.178 205.507 125.04 208.385C119.901 211.262 112.297 215.579 108.186 218.045C103.87 220.306 96.8815 224.417 92.7708 226.677C88.4545 229.144 78.7944 234.693 71.1896 239.01C63.7903 243.531 57.0076 247.026 56.391 247.026C55.7744 247.026 55.1578 233.871 55.1578 217.634V188.448L61.9405 184.543C65.4346 182.487 73.656 177.966 79.822 174.471C93.1819 167.072 198.622 106.028 203.143 103.151C204.788 102.123 209.515 99.451 213.42 97.3957C223.08 92.2573 238.495 83.6248 252.266 75.1978C258.638 71.4982 264.598 68.4152 265.421 68.2096C266.448 68.2096 271.176 70.4705 276.314 73.348Z" fill="url(#1)"/>
<path d="M276.518 302.314C258.431 313.207 239.111 324.512 233.356 327.595C227.806 330.884 219.585 335.405 215.474 337.872C201.703 345.682 193.482 350.409 186.494 354.315C182.589 356.37 154.841 372.607 124.628 390.283C94.4139 407.959 68.9275 422.347 68.1054 422.347C67.0777 422.347 65.2279 423.786 63.7891 425.43C62.3504 427.074 59.8839 428.513 58.4452 428.513C56.1843 428.513 55.5677 423.374 55.5677 402.821C55.5677 388.639 54.9511 377.129 54.1289 377.129C53.1013 377.129 40.9747 383.912 26.7927 392.133L1.10078 407.137L0.484172 467.154C0.278636 500.45 0.895243 527.17 1.71738 527.17C2.74506 527.17 6.65024 525.115 10.5554 522.443C14.4606 519.976 19.8045 516.688 22.682 515.249C25.5595 514.016 29.2591 511.96 30.9034 510.727C35.0141 508.261 129.766 453.383 141.893 446.6C147.031 443.723 154.636 439.406 158.952 436.94C163.063 434.679 170.051 430.568 174.367 428.307C178.478 425.841 207.047 409.398 237.467 391.516C268.091 373.635 296.455 357.192 300.772 354.726C304.882 352.465 311.665 348.56 315.57 346.299C319.475 344.038 326.052 340.338 329.958 338.077C333.863 335.816 340.645 331.911 344.962 329.65C365.515 317.935 370.243 314.852 368.598 313.413C363.665 308.891 315.776 282.583 312.898 282.788C311.048 282.788 294.606 291.626 276.518 302.314Z" fill="red"/>
<defs>
<linearGradient x1="593.75" y1="901.96" x2="-147.817" y2="-369.816" gradientUnits="userSpaceOnUse">
<stop offset="0.226599" stop-color="#FF0400"/>
<stop offset="0.697917" stop-color="#FE7E00"/>
</linearGradient>
<linearGradient id="paint1_linear" x1="411.666" y1="701.729" x2="142.673" y2="14.6113" gradientUnits="userSpaceOnUse">
<stop offset="0.226599" stop-color="#FF0400"/>
<stop offset="0.697917" stop-color="#FE7E00"/>
</linearGradient>
</defs>
</svg>
