<svg width="379" height="262" viewBox="0 0 379 262" fill="none" xmlns="http://www.w3.org/2000/svg">
<g clip-path="url(#clip0)">
<path d="M40.9911 220.264L49.4198 213.133L39.0193 209.414L40.9911 220.264Z" fill="#0091B5"/>
<path d="M23.9114 182.663L17.5378 185.952L23.5782 189.823L23.9114 182.663Z" fill="#0091B5"/>
<path d="M19.9678 160.672L33.7842 164.584L30.2711 150.668L19.9678 160.672Z" fill="#0091B5"/>
<path d="M83.2456 109.126L82.3013 96.9441L72.2202 103.854L83.2456 109.126Z" fill="#0091B5"/>
<path d="M21.7452 92.2959L17.4406 83.9432L12.3445 91.8519L21.7452 92.2959Z" fill="#0091B5"/>
<path d="M25.0777 32.1898L17.0239 42.4433L29.9378 44.2887L25.0777 32.1898Z" fill="#0091B5"/>
<path d="M61.6114 35.159L70.1096 28.2493L59.8618 24.3505L61.6114 35.159Z" fill="#0091B5"/>
<path d="M85.8701 69.5827L99.1866 70.6788L93.4796 58.6077L85.8701 69.5827Z" fill="#0091B5"/>
<path d="M119.39 33.1055L112.517 30.1224L113.378 37.5594L119.39 33.1055Z" fill="#0091B5"/>
<path d="M153.688 67.557L144.204 65.3787L147.051 74.6749L153.688 67.557Z" fill="#0091B5"/>
<path d="M179.808 14.305L172.518 10.2674L172.656 18.5923L179.808 14.305Z" fill="#0091B5"/>
<path d="M192.305 84.9839L185.334 73.662L179.002 85.3585L192.305 84.9839Z" fill="#0091B5"/>
<path d="M236.754 43.04L227.589 50.3521L238.517 54.6255L236.754 43.04Z" fill="#0091B5"/>
<path d="M250.264 106.393L241.6 112.65L251.361 117.021L250.264 106.393Z" fill="#0091B5"/>
<path d="M273.995 34.5486L285.701 38.6417L283.396 26.4734L273.995 34.5486Z" fill="#0091B5"/>
<path d="M350.104 23.3237L344.966 29.4981L352.881 30.8717L350.104 23.3237Z" fill="#0091B5"/>
<path d="M300.712 90.1731L310.862 94.8628L309.849 83.7351L300.712 90.1731Z" fill="#0091B5"/>
<path d="M341.397 64.2686L354.172 69.1665L352.02 55.6662L341.397 64.2686Z" fill="#0091B5"/>
<path d="M363.851 118.381L357.033 107.766L351.256 118.977L363.851 118.381Z" fill="#0091B5"/>
<path d="M368.072 173.853L359.754 168.705L359.463 178.473L368.072 173.853Z" fill="#0091B5"/>
<path d="M289.936 175.171L299.545 173.936L293.658 166.235L289.936 175.171Z" fill="#0091B5"/>
<path d="M337.315 223.955L343.452 213.299L331.149 213.327L337.315 223.955Z" fill="#0091B5"/>
<path d="M298.254 214.34L287.27 219.473L297.212 226.425L298.254 214.34Z" fill="#0091B5"/>
<path d="M329.427 248L325.234 241.743L321.901 248.486L329.427 248Z" fill="#0091B5"/>
<path d="M28.9102 211.384L22.6338 202.588L18.1487 212.411L28.9102 211.384Z" fill="#ED3A4F"/>
<path d="M50.6555 172.715L45.365 165.764L41.9907 173.811L50.6555 172.715Z" fill="#ED3A4F"/>
<path d="M25.0362 118.186L11.2476 121.614L21.1065 131.826L25.0362 118.186Z" fill="#ED3A4F"/>
<path d="M123.556 91.3108L120.404 83.8322L115.489 90.3118L123.556 91.3108Z" fill="#ED3A4F"/>
<path d="M27.4106 74.6609L35.4644 72.6352L29.674 66.6689L27.4106 74.6609Z" fill="#ED3A4F"/>
<path d="M12.4972 73.3844L9.67839 60.7028L0.097168 69.4717L12.4972 73.3844Z" fill="#ED3A4F"/>
<path d="M127.166 132.492L122.279 120.393L114.225 130.66L127.166 132.492Z" fill="#ED3A4F"/>
<path d="M29.5352 19.0364L36.6447 27.8747L40.741 17.302L29.5352 19.0364Z" fill="#ED3A4F"/>
<path d="M96.9508 6.31312L89.0498 4.64813L91.5631 12.321L96.9508 6.31312Z" fill="#ED3A4F"/>
<path d="M138.567 25.294L132.957 15.5121L127.278 25.2523L138.567 25.294Z" fill="#ED3A4F"/>
<path d="M178.877 47.6743L172.143 52.4889L179.683 55.916L178.877 47.6743Z" fill="#ED3A4F"/>
<path d="M208.94 59.787L203.761 65.448L211.245 67.0991L208.94 59.787Z" fill="#ED3A4F"/>
<path d="M210.454 13.1812L217.494 4.19028L206.191 2.59467L210.454 13.1812Z" fill="#ED3A4F"/>
<path d="M261.443 31.052L257.791 23.1711L252.792 30.2612L261.443 31.052Z" fill="#ED3A4F"/>
<path d="M308.751 16.8164L321.596 26.3624L323.443 10.4756L308.751 16.8164Z" fill="#ED3A4F"/>
<path d="M263.039 134.975L252.431 125.152L249.223 139.249L263.039 134.975Z" fill="#ED3A4F"/>
<path d="M325.387 84.6925L314.778 91.7548L326.206 97.3881L325.387 84.6925Z" fill="#ED3A4F"/>
<path d="M371.821 25.6547L366.378 13.5142L358.574 24.3088L371.821 25.6547Z" fill="#ED3A4F"/>
<path d="M333.968 128.579L346.465 124.93L337.051 115.939L333.968 128.579Z" fill="#ED3A4F"/>
<path d="M373.237 150.127L360.671 145.007L362.517 158.438L373.237 150.127Z" fill="#ED3A4F"/>
<path d="M322.901 147.81L329.914 149.794L328.122 142.731L322.901 147.81Z" fill="#ED3A4F"/>
<path d="M351.645 259.003L343.688 251.247L340.939 262L351.645 259.003Z" fill="#ED3A4F"/>
<path d="M51.1138 114.87L60.8061 120.406L60.7644 109.251L51.1138 114.87Z" fill="#ED3A4F"/>
<path d="M365.434 224.122L376.417 218.141L365.739 211.634L365.434 224.122Z" fill="#ED3A4F"/>
<path d="M39.6163 241.507L28.8547 239.648L32.6317 249.887L39.6163 241.507Z" fill="#ED3A4F"/>
<path d="M300.212 136.89L291.255 137.417L296.185 144.91L300.212 136.89Z" fill="#FDB913"/>
<path d="M312.265 192.39L303.85 199.271L314.014 203.115L312.265 192.39Z" fill="#FDB913"/>
<path d="M356.644 79.6975L367.391 85.636L367.169 73.3567L356.644 79.6975Z" fill="#FDB913"/>
<path d="M255.458 121.711L262.47 123.098L260.165 116.327L255.458 121.711Z" fill="#FDB913"/>
<path d="M59.7506 69.0555L66.6936 61.7712L56.9041 59.3986L59.7506 69.0555Z" fill="#FDB913"/>
<path d="M314.542 103.202L307.863 100.801L309.126 107.78L314.542 103.202Z" fill="#FDB913"/>
<path d="M270.774 64.0328L278.189 60.5502L271.468 55.8882L270.774 64.0328Z" fill="#FDB913"/>
<path d="M173.531 18.6479L169.116 24.2395L176.17 25.2662L173.531 18.6479Z" fill="#FDB913"/>
<path d="M220.91 76.8948L226.311 68.334L216.188 67.9316L220.91 76.8948Z" fill="#FDB913"/>
<path d="M166.311 71.1783L160.84 76.8948L168.518 78.7679L166.311 71.1783Z" fill="#FDB913"/>
<path d="M129.319 70.873L131.402 62.4648L123.084 64.8652L129.319 70.873Z" fill="#FDB913"/>
<path d="M100.02 85.525L113.267 85.969L107.032 74.2724L100.02 85.525Z" fill="#FDB913"/>
<path d="M0 107.877L11.3447 112.317L9.5118 100.288L0 107.877Z" fill="#FDB913"/>
<path d="M93.3545 140.331L95.9095 133.158L88.4111 134.531L93.3545 140.331Z" fill="#FDB913"/>
<path d="M29.4935 32.1621L23.1893 25.3495L20.4399 34.2017L29.4935 32.1621Z" fill="#FDB913"/>
<path d="M50.9611 149.474L37.5752 146.339L41.5604 159.492L50.9611 149.474Z" fill="#FDB913"/>
<path d="M50.7527 190.947L59.2925 183.704L48.7393 179.944L50.7527 190.947Z" fill="#FDB913"/>
<path d="M125.417 103.035L131.166 96.6249L122.737 94.8489L125.417 103.035Z" fill="#FDB913"/>
<path d="M73.1784 226.341L61.3755 229.852L70.3041 238.315L73.1784 226.341Z" fill="#FDB913"/>
<path d="M3.76294 225.995L11.539 233.279L13.9829 222.9L3.76294 225.995Z" fill="#FDB913"/>
<path d="M322.11 133.615L330.497 141.621L333.232 130.355L322.11 133.615Z" fill="#FDB913"/>
<path d="M73.2199 188.727L81.4958 182.733L72.1646 178.57L73.2199 188.727Z" fill="#FDB913"/>
<path d="M312.029 155.149C315.699 156.303 319.096 158.191 322.013 160.699C322.981 161.52 323.734 162.564 324.206 163.742C324.678 164.92 324.854 166.195 324.72 167.456C324.72 170.925 322.332 173.492 319.333 174.977C317.361 175.962 311.612 176.364 311.557 172.992C311.557 170.467 311.779 169.454 314.459 168.636C315.937 168.11 317.532 168.007 319.065 168.338C320.598 168.669 322.009 169.421 323.137 170.509C324.105 171.293 324.898 172.271 325.465 173.38C326.031 174.489 326.36 175.704 326.428 176.947C326.428 179.861 325.679 181.248 322.457 181.539C322.457 181.539 322.36 179.125 322.457 179.125C324.276 178.959 326.22 178.445 326.414 176.35C326.414 177.099 326.414 177.849 326.414 178.612C326.414 175.518 323.248 172.521 320.707 171.161C318.736 170.106 312.098 170.217 311.571 173.159V170.703C311.862 173.756 316.875 173.478 318.819 172.743C321.763 171.674 324.651 168.774 324.72 165.514V167.775C324.248 162.448 316.5 158.868 312.043 157.508C311.807 157.439 312.251 155.149 312.043 155.094L312.029 155.149Z" fill="#FDB913"/>
<path d="M67.6797 114.426C70.6233 115.57 73.2377 117.424 75.2891 119.824C76.4967 121.465 77.0374 123.503 76.8027 125.526C76.8027 130.993 69.4293 131.659 69.0405 136.626V134.212C69.2904 138.985 75.1225 139.762 77.7886 142.717C78.6356 143.647 79.6076 146.283 78.4967 147.407C77.3859 148.531 75.7196 149.03 74.6504 150.293C73.0952 152.041 73.72 152.943 74.1227 155.094C74.5624 157.354 74.448 159.686 73.7895 161.892C74.0394 161.171 73.5395 160.186 73.7895 159.45C74.6087 157.064 73.4562 154.109 73.484 151.514C73.4738 149.962 74.0719 148.468 75.1503 147.352C75.8446 146.561 78.7328 145.492 78.7883 144.424C78.7883 145.229 78.7883 146.02 78.7883 146.824C77.858 143.536 73.4562 142.579 71.0956 140.678C69.1794 139.138 68.9988 137.056 69.0127 134.836C69.0127 129.619 76.6499 128.898 76.7749 123.57V125.97C76.3444 121.516 71.4289 118.492 67.6658 116.952C67.3603 116.827 67.9296 114.621 67.6658 114.51L67.6797 114.426Z" fill="#0091B5"/>
<path d="M186.626 32.5644C189.571 33.7043 192.186 35.5593 194.235 37.9617C195.454 39.5976 195.996 41.6397 195.749 43.6643C195.749 49.131 188.389 49.797 187.986 54.7643C187.986 53.9595 187.986 53.1548 187.986 52.35C188.236 57.123 194.068 57.9 196.735 60.8553C197.568 61.785 198.554 64.4212 197.443 65.5451C196.332 66.6689 194.666 67.1684 193.582 68.431C192.041 70.1793 192.666 71.0812 193.055 73.2318C193.492 75.491 193.383 77.8221 192.735 80.0305C192.985 79.309 192.485 78.3239 192.735 77.5885C193.555 75.202 192.402 72.2466 192.43 69.652C192.422 68.1033 193.014 66.6116 194.082 65.4896C194.777 64.6987 197.665 63.6303 197.734 62.562V64.9623C196.804 61.674 192.416 60.7166 190.055 58.8157C188.139 57.2756 187.959 55.1944 187.973 52.9744C187.973 47.7574 195.596 47.0359 195.721 41.708C195.721 42.5127 195.721 43.3175 195.721 44.1083C195.29 39.6545 190.361 36.6297 186.598 35.0896C186.306 34.9648 186.876 32.7586 186.598 32.6476L186.626 32.5644Z" fill="#FDB913"/>
<path d="M97.0342 94.5576C102.991 92.8371 105.963 100.371 103.324 104.825C102.609 105.869 101.559 106.638 100.347 107.004C99.1343 107.37 97.8334 107.311 96.6593 106.837C95.5762 106.323 95.9095 104.298 96.0205 103.354C96.1316 102.411 97.7702 101.62 98.6727 101.44C100.153 101.297 101.644 101.587 102.963 102.272C105.116 103.215 107.768 105.241 107.81 107.822C107.81 110.014 107.81 111.651 106.116 113.372C104.983 114.468 103.624 115.303 102.135 115.818C100.645 116.333 99.0605 116.517 97.4924 116.355C97.3536 116.355 97.6035 114.038 97.4924 114.024C99.932 114.264 102.381 113.667 104.435 112.331C105.529 111.724 106.477 110.886 107.213 109.875C107.685 109.223 107.56 108.044 107.81 109.293C107.659 108.745 107.405 108.232 107.06 107.78C105.587 105.855 103.483 104.51 101.117 103.979C99.492 103.548 96.3538 103.77 96.1039 105.963V103.618C96.3399 105.241 98.881 105.005 100.02 104.783C101.142 104.535 102.154 103.928 102.9 103.055C103.647 102.181 104.088 101.088 104.158 99.941V102.119C104.148 101.262 103.939 100.419 103.548 99.6556C103.157 98.8924 102.594 98.2302 101.904 97.7207C101.214 97.2112 100.415 96.8685 99.5703 96.7193C98.7253 96.5701 97.8573 96.6185 97.0342 96.8608C97.2147 96.8608 96.7981 94.5853 97.0342 94.5159V94.5576Z" fill="#ED3A4F"/>
<path d="M352.45 179.403C350.77 178.098 348.618 177.099 346.757 178.612C344.896 180.124 345.452 182.247 346.452 184.051C347.451 185.854 348.354 188.213 350.381 188.602C350.847 188.62 351.306 188.498 351.701 188.25C352.095 188.002 352.404 187.641 352.589 187.214C352.728 186.742 352.756 186.84 352.686 187.506C352.635 187.308 352.561 187.117 352.464 186.937C352.266 186.571 351.98 186.261 351.631 186.035C350.062 184.883 347.618 186.201 346.521 187.422C345.266 189.007 344.55 190.952 344.48 192.972C344.456 193.95 344.568 194.926 344.813 195.872C344.838 196.326 344.979 196.765 345.222 197.149C345.465 197.532 345.802 197.848 346.202 198.064C347.771 198.869 350.492 198.3 350.742 196.344V198.106C350.576 196.316 346.965 198.647 346.382 199.119C343.938 201.186 344.785 204.877 346.993 206.653C347.285 206.889 346.702 208.179 346.993 208.401C343.077 205.265 344.077 195.914 350.062 195.72C350.909 195.72 350.756 196.663 350.756 197.218C350.756 198.314 350.659 199.202 349.576 199.757C348.905 200.082 348.154 200.205 347.415 200.112C346.675 200.018 345.979 199.712 345.41 199.23C344.591 198.37 344.549 196.302 344.48 195.165C344.25 192.832 344.472 190.476 345.132 188.227C345.952 185.743 349.173 182.538 351.909 184.564C353.297 185.549 353.172 188.727 352.061 189.823C349.284 192.528 346.41 186.104 345.757 184.273C345.232 182.464 345.203 180.547 345.674 178.723C346.632 175.212 350.256 175.948 352.478 177.71C352.77 177.932 352.2 179.25 352.478 179.458L352.45 179.403Z" fill="#0091B5"/>
<path d="M49.1002 51.0736C48.1546 51.6677 47.4178 52.5415 46.9922 53.5735C46.5667 54.6055 46.4735 55.7443 46.7257 56.8316C47.2534 59.3153 49.3641 61.1606 49.7251 63.6026C49.9056 64.8097 50.0584 66.0168 50.1417 67.2378C50.2666 68.9722 49.1558 69.3746 47.9199 70.2487C43.7542 73.2318 46.1287 77.755 46.5313 81.8342C47.0754 86.431 46.1984 91.084 44.018 95.168C44.3096 94.5575 43.4348 93.3504 43.7403 92.7261C45.1306 90.1922 46.0703 87.4364 46.5175 84.5815C46.8368 81.8065 45.7537 79.2951 45.3372 76.645C44.7817 73.1347 44.7817 69.8324 48.0032 67.5431C49.614 66.4053 50.2528 65.9752 49.1835 64.0466C47.9623 62.1921 47.1264 60.1113 46.7257 57.9278C46.3092 54.7643 45.5038 50.5324 48.7947 48.6454C48.5309 48.7981 49.3641 50.9071 49.0725 51.0736H49.1002Z" fill="#ED3A4F"/>
<path d="M327.331 41.1669C330.983 41.93 334.496 44.5801 337.398 46.8001C340.3 49.0201 342.008 50.8516 342.008 54.3203C342.008 57.789 341.744 59.8009 339.12 62.2151C335.884 65.2537 331.205 67.1268 331.122 72.1912C331.122 70.9008 331.122 69.6104 331.122 68.3201C331.705 73.0792 338.564 73.5925 338.648 78.2545C338.759 79.7741 338.759 81.2998 338.648 82.8194C338.19 86.5933 333.677 87.3148 333.524 91.394V87.2316C334.041 90.0451 335.357 92.6508 337.315 94.7379C338.009 95.5843 336.648 98.0818 337.315 98.9004C334.714 95.9798 333.35 92.1643 333.51 88.2583C333.329 86.6568 333.771 85.047 334.746 83.7628C336.246 81.9036 338.342 81.1821 338.648 78.6014V82.4725C338.648 79.3368 335.385 78.0048 333.26 76.2981C331.136 74.5915 331.122 72.3577 331.122 69.8324C330.998 68.3457 331.226 66.8509 331.785 65.4678C332.345 64.0847 333.221 62.8519 334.343 61.8682C337.12 59.2459 341.869 57.3034 342.008 52.8773C342.008 54.2648 342.008 55.6523 342.008 56.9565C341.605 53.7237 338.259 51.5314 335.815 49.7693C333.317 47.7385 330.437 46.2288 327.345 45.3293C327.039 45.3293 327.595 41.1669 327.345 41.1669H327.331Z" fill="#ED3A4F"/>
<path d="M3.79076 154.247C7.44274 155.01 10.9559 157.661 13.858 159.881C16.7601 162.101 18.4681 163.932 18.4681 167.401C18.4681 170.87 18.2043 172.881 15.5798 175.296C12.3444 178.265 7.66491 180.207 7.59548 185.258C7.59548 183.967 7.59548 182.677 7.59548 181.387C8.17869 186.146 15.0383 186.659 15.1216 191.321C15.2327 192.841 15.2327 194.366 15.1216 195.886C14.6634 199.66 10.1505 200.381 9.99773 204.461V200.298C10.5148 203.112 11.8307 205.717 13.7886 207.805C14.4829 208.651 13.122 211.148 13.7886 211.967C11.188 209.046 9.82386 205.231 9.98384 201.325C9.80238 199.723 10.2449 198.114 11.2197 196.829C12.7194 194.97 14.8161 194.249 15.1216 191.668V195.678C15.1216 192.542 11.8584 191.21 9.7339 189.504C7.60936 187.797 7.58159 185.438 7.58159 182.913C7.45843 181.426 7.6857 179.931 8.24516 178.548C8.80461 177.165 9.68069 175.932 10.8031 174.949C13.6497 172.326 18.3292 170.384 18.4681 165.958C18.4681 167.345 18.4681 168.733 18.4681 170.037C18.0654 166.804 14.7189 164.612 12.275 162.85C9.77691 160.819 6.89671 159.309 3.80465 158.41C3.49916 158.41 4.05459 154.247 3.80465 154.247H3.79076Z" fill="#FDB913"/>
<path d="M81.6765 10.642C78.8993 11.2109 76.3165 13.195 74.1365 14.8045C71.9564 16.414 70.6928 17.8431 70.6789 20.4377C70.665 23.0323 70.8733 24.6002 72.8451 26.3484C75.2751 28.5684 78.7743 30.0392 78.8299 33.8131C78.8299 32.8419 78.8299 31.8845 78.8299 30.9133C78.3855 34.4791 73.2756 34.8676 73.1783 38.3641C73.102 39.5006 73.102 40.6409 73.1783 41.7773C73.5255 44.5523 76.9136 45.1489 77.0247 48.2014V45.1906C76.6415 47.2653 75.6787 49.1893 74.2476 50.7405C73.7199 51.3788 74.7474 53.2519 74.2476 53.8624C76.1433 51.6796 77.1319 48.8551 77.0108 45.9676C77.1445 44.7661 76.8115 43.5592 76.0805 42.596C74.9696 41.2085 73.3866 40.6673 73.1506 38.7249C73.1506 39.6961 73.1506 40.6535 73.1506 41.6247C73.1506 39.2799 75.5945 38.2809 77.1775 37.0044C78.7605 35.7279 78.8021 34.0074 78.8021 32.1065C78.8929 30.994 78.723 29.8756 78.3061 28.84C77.8891 27.8044 77.2364 26.8801 76.3999 26.1403C74.2614 24.1839 70.7483 22.7271 70.6511 19.411C70.6511 20.4238 70.6511 21.4506 70.6511 22.4635C70.9566 20.0492 73.4283 18.412 75.289 17.08C77.1602 15.5573 79.3181 14.425 81.6348 13.75C81.8709 13.75 81.4543 10.6837 81.6348 10.642H81.6765Z" fill="#ED3A4F"/>
<path d="M286.687 77.8383C283.84 78.4488 281.133 80.5162 278.828 82.2367C276.522 83.9572 275.231 85.4001 275.231 88.1058C275.231 90.8114 275.439 92.3792 277.481 94.2662C280.008 96.5833 283.66 98.0957 283.715 102.036C283.715 101.023 283.715 100.024 283.715 99.0114C283.257 102.73 277.897 103.174 277.842 106.768C277.758 107.955 277.758 109.146 277.842 110.333C278.203 113.275 281.73 113.83 281.841 117.007C281.841 115.953 281.841 114.884 281.841 113.83C281.435 116.024 280.408 118.056 278.883 119.685C278.342 120.337 279.397 122.28 278.883 122.918C280.924 120.638 281.986 117.648 281.841 114.593C281.992 113.338 281.649 112.074 280.883 111.069C279.716 109.681 278.105 109.071 277.828 107.045C277.828 108.058 277.828 109.057 277.828 110.07C277.828 107.614 280.369 106.573 281.994 105.255C283.618 103.937 283.688 102.133 283.688 100.163C283.785 99.0027 283.608 97.8357 283.172 96.756C282.735 95.6764 282.051 94.7143 281.174 93.9471C278.953 91.9075 275.301 90.3951 275.189 87.0096V90.2286C275.495 87.7034 278.105 86.0661 280.022 84.6787C281.972 83.0944 284.219 81.9151 286.631 81.2099C286.867 81.2099 286.437 78.0048 286.631 77.9632L286.687 77.8383Z" fill="#0091B5"/>
<path d="M65.9022 213.785C65.8995 213.97 65.952 214.151 66.0532 214.306C66.1544 214.461 66.2995 214.583 66.4701 214.655C66.6406 214.727 66.8288 214.746 67.0106 214.711C67.1923 214.675 67.3594 214.587 67.4903 214.456C67.6213 214.325 67.7101 214.158 67.7456 213.976C67.7811 213.795 67.7615 213.607 67.6893 213.436C67.6172 213.266 67.4958 213.121 67.3407 213.02C67.1856 212.919 67.0038 212.866 66.8187 212.869C66.5767 212.873 66.3457 212.97 66.1746 213.141C66.0035 213.312 65.9058 213.543 65.9022 213.785Z" fill="#ED3A4F"/>
<path d="M27.9382 189.309C27.9382 189.606 28.0262 189.895 28.191 190.142C28.3558 190.388 28.59 190.58 28.864 190.694C29.138 190.807 29.4396 190.837 29.7305 190.779C30.0214 190.721 30.2886 190.579 30.4983 190.369C30.7081 190.159 30.8509 189.892 30.9088 189.602C30.9666 189.311 30.9369 189.01 30.8234 188.736C30.7099 188.462 30.5177 188.228 30.2711 188.063C30.0245 187.899 29.7345 187.811 29.4379 187.811C29.0402 187.811 28.6587 187.969 28.3775 188.25C28.0962 188.531 27.9382 188.912 27.9382 189.309Z" fill="#ED3A4F"/>
<path d="M60.1119 162.447C60.1091 162.769 60.2021 163.084 60.3789 163.353C60.5557 163.622 60.8085 163.832 61.1051 163.957C61.4017 164.082 61.7288 164.116 62.0449 164.055C62.3609 163.994 62.6517 163.841 62.8803 163.614C63.1089 163.388 63.265 163.098 63.3289 162.783C63.3927 162.468 63.3613 162.141 63.2388 161.843C63.1162 161.546 62.908 161.292 62.6405 161.113C62.3731 160.934 62.0584 160.838 61.7365 160.838C61.5238 160.836 61.3129 160.876 61.1158 160.956C60.9188 161.037 60.7396 161.155 60.5886 161.304C60.4375 161.454 60.3176 161.632 60.2358 161.828C60.154 162.024 60.1119 162.235 60.1119 162.447Z" fill="#ED3A4F"/>
<path d="M53.0716 129.869C53.0689 130.115 53.1394 130.355 53.2741 130.56C53.4088 130.766 53.6017 130.926 53.8281 131.021C54.0544 131.116 54.3041 131.142 54.5451 131.095C54.7861 131.048 55.0076 130.93 55.1812 130.756C55.3549 130.583 55.4729 130.361 55.5201 130.121C55.5674 129.88 55.5417 129.63 55.4465 129.404C55.3512 129.178 55.1907 128.985 54.9853 128.851C54.78 128.716 54.5392 128.645 54.2936 128.648C53.9706 128.652 53.6619 128.782 53.4335 129.01C53.2051 129.238 53.0752 129.546 53.0716 129.869Z" fill="#ED3A4F"/>
<path d="M51.6692 122.391C51.6692 122.693 51.7588 122.988 51.9266 123.239C52.0944 123.49 52.333 123.685 52.6121 123.801C52.8912 123.916 53.1983 123.946 53.4946 123.888C53.7909 123.829 54.0631 123.683 54.2767 123.47C54.4903 123.256 54.6358 122.984 54.6947 122.688C54.7537 122.392 54.7234 122.085 54.6078 121.807C54.4922 121.528 54.2964 121.289 54.0452 121.122C53.794 120.954 53.4987 120.864 53.1966 120.864C52.7915 120.864 52.403 121.025 52.1166 121.311C51.8301 121.598 51.6692 121.986 51.6692 122.391Z" fill="#ED3A4F"/>
<path d="M53.877 102.438C53.877 102.718 53.9881 102.986 54.1861 103.184C54.384 103.382 54.6524 103.493 54.9323 103.493C55.0702 103.493 55.2068 103.466 55.334 103.412C55.4613 103.359 55.5767 103.281 55.6736 103.183C55.7705 103.085 55.8469 102.969 55.8985 102.841C55.95 102.713 55.9755 102.576 55.9737 102.438C55.9756 102.301 55.9499 102.165 55.8982 102.038C55.8466 101.911 55.7699 101.795 55.6728 101.698C55.5758 101.601 55.4602 101.525 55.333 101.473C55.2058 101.422 55.0696 101.396 54.9323 101.398C54.7943 101.396 54.6574 101.422 54.5295 101.473C54.4015 101.524 54.2851 101.601 54.1869 101.698C54.0887 101.794 54.0107 101.91 53.9575 102.037C53.9043 102.164 53.8769 102.301 53.877 102.438Z" fill="#ED3A4F"/>
<path d="M38.8387 45.8289C38.8387 46.0326 38.8994 46.2316 39.0129 46.4007C39.1264 46.5699 39.2878 46.7015 39.4763 46.7787C39.6649 46.856 39.8722 46.8755 40.0719 46.8348C40.2716 46.794 40.4547 46.6949 40.5978 46.5499C40.7409 46.4049 40.8377 46.2206 40.8757 46.0206C40.9138 45.8205 40.8915 45.6136 40.8116 45.4263C40.7317 45.2389 40.5978 45.0795 40.427 44.9684C40.2562 44.8573 40.0562 44.7994 39.8524 44.8022C39.7181 44.8021 39.5851 44.8288 39.4612 44.8806C39.3373 44.9323 39.225 45.0082 39.1307 45.1037C39.0364 45.1992 38.962 45.3125 38.9119 45.437C38.8617 45.5615 38.8369 45.6947 38.8387 45.8289Z" fill="#ED3A4F"/>
<path d="M75.0807 59.9951C75.0807 60.218 75.147 60.4358 75.2712 60.6209C75.3954 60.806 75.5719 60.95 75.7782 61.0347C75.9846 61.1193 76.2114 61.1408 76.43 61.0963C76.6485 61.0518 76.8489 60.9433 77.0056 60.7848C77.1624 60.6262 77.2684 60.4246 77.3102 60.2057C77.352 59.9868 77.3278 59.7604 77.2405 59.5553C77.1532 59.3502 77.0069 59.1757 76.8201 59.0539C76.6333 58.9321 76.4145 58.8685 76.1915 58.8712C76.0445 58.8712 75.8989 58.9004 75.7632 58.957C75.6275 59.0137 75.5044 59.0967 75.4011 59.2012C75.2977 59.3058 75.2162 59.4298 75.1612 59.5661C75.1062 59.7023 75.0788 59.8482 75.0807 59.9951Z" fill="#ED3A4F"/>
<path d="M69.693 18.7728C69.6957 18.9286 69.7445 19.0801 69.8331 19.2083C69.9217 19.3365 70.0462 19.4357 70.1911 19.4935C70.3359 19.5512 70.4946 19.5649 70.6472 19.5328C70.7998 19.5008 70.9396 19.4244 71.0489 19.3132C71.1582 19.2021 71.2322 19.0612 71.2616 18.9082C71.2911 18.7551 71.2746 18.5968 71.2143 18.4531C71.154 18.3094 71.0526 18.1867 70.9227 18.1004C70.7929 18.0141 70.6404 17.968 70.4845 17.968C70.3794 17.968 70.2753 17.9889 70.1784 18.0295C70.0814 18.0701 69.9935 18.1296 69.9198 18.2045C69.8462 18.2795 69.7882 18.3683 69.7492 18.4658C69.7103 18.5634 69.6911 18.6677 69.693 18.7728Z" fill="#ED3A4F"/>
<path d="M122.89 37.9617C123.71 37.9617 124.375 37.297 124.375 36.4771C124.375 35.6572 123.71 34.9925 122.89 34.9925C122.069 34.9925 121.404 35.6572 121.404 36.4771C121.404 37.297 122.069 37.9617 122.89 37.9617Z" fill="#ED3A4F"/>
<path d="M134.832 65.7254C134.832 65.8544 134.87 65.9805 134.942 66.0877C135.013 66.195 135.115 66.2785 135.234 66.3279C135.354 66.3773 135.485 66.3902 135.611 66.365C135.738 66.3399 135.854 66.2777 135.946 66.1865C136.037 66.0953 136.099 65.9791 136.124 65.8526C136.149 65.7261 136.137 65.595 136.087 65.4759C136.038 65.3567 135.954 65.2549 135.847 65.1832C135.739 65.1115 135.613 65.0733 135.484 65.0733C135.311 65.0733 135.145 65.142 135.023 65.2643C134.9 65.3866 134.832 65.5525 134.832 65.7254Z" fill="#ED3A4F"/>
<path d="M165.116 12.7094C165.12 12.9425 165.215 13.1648 165.382 13.3284C165.548 13.4919 165.772 13.5835 166.005 13.5835C166.237 13.5835 166.46 13.4914 166.624 13.3275C166.788 13.1636 166.88 12.9412 166.88 12.7094C166.88 12.4763 166.788 12.2525 166.625 12.0864C166.461 11.9202 166.238 11.8251 166.005 11.8214C165.769 11.8214 165.543 11.915 165.377 12.0815C165.21 12.248 165.116 12.4739 165.116 12.7094Z" fill="#ED3A4F"/>
<path d="M179.155 27.8053C180.045 27.8053 180.766 27.0848 180.766 26.1959C180.766 25.307 180.045 24.5864 179.155 24.5864C178.265 24.5864 177.544 25.307 177.544 26.1959C177.544 27.0848 178.265 27.8053 179.155 27.8053Z" fill="#ED3A4F"/>
<path d="M187.112 20.1741C187.112 20.4183 187.184 20.6571 187.32 20.8601C187.456 21.0632 187.649 21.2215 187.874 21.3149C188.1 21.4084 188.349 21.4329 188.589 21.3852C188.828 21.3376 189.048 21.22 189.221 21.0473C189.394 20.8746 189.512 20.6545 189.56 20.415C189.607 20.1755 189.583 19.9272 189.489 19.7015C189.396 19.4759 189.237 19.283 189.034 19.1473C188.831 19.0116 188.592 18.9392 188.347 18.9392C188.02 18.9392 187.705 19.0693 187.474 19.3009C187.242 19.5325 187.112 19.8466 187.112 20.1741Z" fill="#ED3A4F"/>
<path d="M228.047 27.5417C228.047 27.8161 228.129 28.0844 228.281 28.3126C228.434 28.5407 228.651 28.7186 228.904 28.8236C229.158 28.9286 229.437 28.9561 229.707 28.9026C229.976 28.849 230.223 28.7169 230.418 28.5228C230.612 28.3288 230.744 28.0816 230.798 27.8124C230.851 27.5433 230.824 27.2643 230.719 27.0108C230.613 26.7572 230.436 26.5405 230.207 26.3881C229.979 26.2356 229.71 26.1542 229.436 26.1542C229.067 26.1542 228.714 26.3004 228.454 26.5606C228.193 26.8208 228.047 27.1737 228.047 27.5417Z" fill="#ED3A4F"/>
<path d="M275.245 7.75607C276.165 7.75607 276.911 7.01062 276.911 6.09108C276.911 5.17153 276.165 4.42609 275.245 4.42609C274.325 4.42609 273.579 5.17153 273.579 6.09108C273.579 7.01062 274.325 7.75607 275.245 7.75607Z" fill="#ED3A4F"/>
<path d="M288.353 74.4251C288.353 74.6693 288.426 74.908 288.562 75.1111C288.697 75.3142 288.89 75.4725 289.116 75.5659C289.342 75.6594 289.59 75.6838 289.83 75.6362C290.07 75.5885 290.29 75.4709 290.463 75.2982C290.636 75.1255 290.754 74.9055 290.801 74.666C290.849 74.4264 290.824 74.1781 290.731 73.9525C290.637 73.7268 290.479 73.534 290.276 73.3983C290.072 73.2626 289.834 73.1902 289.589 73.1902C289.261 73.1902 288.947 73.3203 288.715 73.5519C288.483 73.7834 288.353 74.0975 288.353 74.4251Z" fill="#ED3A4F"/>
<path d="M355.963 77.2694C355.963 77.4093 356.005 77.5462 356.083 77.6625C356.161 77.7789 356.271 77.8696 356.401 77.9231C356.53 77.9767 356.672 77.9907 356.81 77.9634C356.947 77.9361 357.073 77.8687 357.172 77.7697C357.271 77.6708 357.339 77.5447 357.366 77.4074C357.393 77.2702 357.379 77.1279 357.326 76.9986C357.272 76.8693 357.181 76.7588 357.065 76.681C356.949 76.6033 356.812 76.5618 356.672 76.5618C356.579 76.5618 356.486 76.5801 356.401 76.6156C356.315 76.6512 356.237 76.7033 356.171 76.769C356.105 76.8347 356.053 76.9127 356.017 76.9986C355.982 77.0844 355.963 77.1765 355.963 77.2694Z" fill="#ED3A4F"/>
<path d="M345.271 107.78C345.271 107.979 345.35 108.17 345.491 108.31C345.631 108.451 345.822 108.53 346.021 108.53C346.22 108.53 346.411 108.451 346.551 108.31C346.692 108.17 346.771 107.979 346.771 107.78C346.771 107.582 346.692 107.391 346.551 107.251C346.411 107.11 346.22 107.031 346.021 107.031C345.822 107.031 345.631 107.11 345.491 107.251C345.35 107.391 345.271 107.582 345.271 107.78Z" fill="#ED3A4F"/>
<path d="M366.628 114.621C366.625 114.756 366.663 114.888 366.736 115.002C366.809 115.116 366.914 115.205 367.038 115.259C367.162 115.312 367.299 115.328 367.432 115.303C367.565 115.278 367.688 115.215 367.784 115.12C367.881 115.026 367.947 114.905 367.974 114.772C368.002 114.64 367.989 114.503 367.938 114.378C367.887 114.253 367.8 114.146 367.688 114.07C367.575 113.995 367.443 113.955 367.308 113.955C367.22 113.953 367.131 113.969 367.049 114.001C366.966 114.034 366.891 114.083 366.828 114.145C366.765 114.207 366.714 114.281 366.68 114.363C366.646 114.444 366.628 114.532 366.628 114.621Z" fill="#ED3A4F"/>
<path d="M333.01 150.945C333.01 151.08 333.05 151.211 333.125 151.323C333.199 151.435 333.306 151.522 333.43 151.573C333.554 151.625 333.691 151.638 333.823 151.612C333.955 151.586 334.076 151.521 334.172 151.426C334.267 151.331 334.331 151.21 334.358 151.078C334.384 150.946 334.371 150.809 334.319 150.685C334.268 150.561 334.18 150.455 334.068 150.38C333.957 150.305 333.825 150.265 333.69 150.265C333.601 150.265 333.513 150.283 333.43 150.317C333.347 150.351 333.272 150.401 333.209 150.464C333.146 150.528 333.096 150.603 333.062 150.685C333.028 150.767 333.01 150.856 333.01 150.945Z" fill="#ED3A4F"/>
<path d="M356.269 194.29C356.269 194.504 356.354 194.709 356.505 194.859C356.656 195.01 356.861 195.095 357.074 195.095C357.288 195.095 357.493 195.01 357.644 194.859C357.795 194.709 357.88 194.504 357.88 194.29C357.88 194.077 357.795 193.872 357.644 193.721C357.493 193.57 357.288 193.486 357.074 193.486C356.861 193.486 356.656 193.57 356.505 193.721C356.354 193.872 356.269 194.077 356.269 194.29Z" fill="#ED3A4F"/>
<path d="M373.834 217.795C373.834 218.069 373.916 218.337 374.068 218.565C374.221 218.794 374.438 218.971 374.692 219.076C374.945 219.181 375.225 219.209 375.494 219.155C375.763 219.102 376.011 218.97 376.205 218.776C376.399 218.582 376.531 218.334 376.585 218.065C376.639 217.796 376.611 217.517 376.506 217.264C376.401 217.01 376.223 216.793 375.995 216.641C375.766 216.488 375.498 216.407 375.223 216.407C374.855 216.407 374.502 216.553 374.241 216.813C373.981 217.074 373.834 217.427 373.834 217.795Z" fill="#ED3A4F"/>
<path d="M348.84 239.009C348.837 239.139 348.873 239.266 348.943 239.375C349.013 239.484 349.114 239.57 349.233 239.622C349.352 239.673 349.484 239.688 349.611 239.664C349.739 239.641 349.856 239.58 349.949 239.489C350.042 239.399 350.105 239.282 350.131 239.156C350.158 239.029 350.146 238.897 350.097 238.777C350.048 238.657 349.964 238.554 349.857 238.482C349.749 238.41 349.622 238.371 349.493 238.371C349.322 238.371 349.158 238.438 349.036 238.557C348.914 238.676 348.844 238.839 348.84 239.009Z" fill="#ED3A4F"/>
<path d="M339.536 251.649C339.534 251.903 339.607 252.152 339.746 252.364C339.885 252.576 340.085 252.741 340.319 252.84C340.553 252.938 340.811 252.965 341.06 252.916C341.309 252.867 341.538 252.745 341.717 252.566C341.897 252.386 342.019 252.158 342.067 251.909C342.116 251.66 342.09 251.402 341.991 251.168C341.893 250.934 341.727 250.735 341.515 250.596C341.303 250.457 341.054 250.384 340.8 250.387C340.465 250.387 340.144 250.52 339.907 250.756C339.67 250.993 339.536 251.314 339.536 251.649Z" fill="#ED3A4F"/>
<path d="M13.872 242.908C14.2631 242.908 14.5802 242.591 14.5802 242.201C14.5802 241.81 14.2631 241.493 13.872 241.493C13.4809 241.493 13.1638 241.81 13.1638 242.201C13.1638 242.591 13.4809 242.908 13.872 242.908Z" fill="#0091B5"/>
<path d="M50.2252 201.131C50.831 201.131 51.3221 200.64 51.3221 200.035C51.3221 199.429 50.831 198.938 50.2252 198.938C49.6193 198.938 49.1282 199.429 49.1282 200.035C49.1282 200.64 49.6193 201.131 50.2252 201.131Z" fill="#0091B5"/>
<path d="M5.38779 160.103C5.38504 160.301 5.44132 160.495 5.54949 160.661C5.65766 160.827 5.81283 160.958 5.99525 161.035C6.17768 161.113 6.37912 161.135 6.57397 161.098C6.76881 161.061 6.94825 160.967 7.08947 160.828C7.23068 160.689 7.32729 160.511 7.367 160.317C7.40672 160.122 7.38775 159.921 7.3125 159.737C7.23726 159.554 7.10914 159.397 6.94444 159.287C6.77974 159.176 6.5859 159.118 6.38757 159.117C6.1248 159.117 5.87259 159.221 5.68548 159.405C5.49838 159.59 5.39144 159.84 5.38779 160.103Z" fill="#0091B5"/>
<path d="M16.3715 144.41C16.3715 144.542 16.4106 144.671 16.4838 144.78C16.5571 144.89 16.6612 144.975 16.7829 145.025C16.9047 145.076 17.0387 145.089 17.168 145.063C17.2973 145.038 17.4161 144.974 17.5093 144.881C17.6025 144.788 17.666 144.669 17.6917 144.54C17.7174 144.411 17.7042 144.277 17.6538 144.155C17.6033 144.034 17.5179 143.93 17.4083 143.856C17.2987 143.783 17.1698 143.744 17.038 143.744C16.95 143.742 16.8624 143.758 16.7807 143.791C16.699 143.824 16.6248 143.873 16.5625 143.935C16.5002 143.997 16.4512 144.071 16.4184 144.153C16.3855 144.235 16.3696 144.322 16.3715 144.41Z" fill="#0091B5"/>
<path d="M55.2935 139.818C55.2935 139.983 55.3593 140.142 55.4765 140.259C55.5937 140.376 55.7526 140.442 55.9183 140.442C56.084 140.442 56.243 140.376 56.3602 140.259C56.4773 140.142 56.5432 139.983 56.5432 139.818C56.5432 139.652 56.4773 139.493 56.3602 139.376C56.243 139.259 56.084 139.193 55.9183 139.193C55.7526 139.193 55.5937 139.259 55.4765 139.376C55.3593 139.493 55.2935 139.652 55.2935 139.818Z" fill="#0091B5"/>
<path d="M70.7207 107.6C70.7207 107.938 70.8212 108.269 71.0095 108.55C71.1978 108.83 71.4654 109.049 71.7783 109.178C72.0912 109.307 72.4353 109.34 72.767 109.273C73.0987 109.206 73.403 109.042 73.6413 108.802C73.8796 108.562 74.0412 108.256 74.1055 107.924C74.1698 107.592 74.134 107.249 74.0026 106.937C73.8712 106.626 73.6501 106.36 73.3674 106.174C73.0847 105.988 72.7532 105.891 72.4148 105.893C71.9642 105.897 71.5333 106.078 71.216 106.398C70.8987 106.718 70.7207 107.15 70.7207 107.6Z" fill="#0091B5"/>
<path d="M66.7908 84.2901C66.7908 84.4493 66.838 84.6049 66.9265 84.7372C67.015 84.8695 67.1408 84.9727 67.2879 85.0336C67.4351 85.0945 67.597 85.1104 67.7533 85.0794C67.9095 85.0483 68.053 84.9717 68.1656 84.8591C68.2783 84.7466 68.355 84.6032 68.3861 84.4471C68.4171 84.291 68.4012 84.1292 68.3402 83.9821C68.2793 83.8351 68.176 83.7094 68.0436 83.621C67.9112 83.5325 67.7554 83.4854 67.5962 83.4854C67.3826 83.4854 67.1777 83.5701 67.0267 83.7211C66.8756 83.872 66.7908 84.0767 66.7908 84.2901Z" fill="#0091B5"/>
<path d="M75.9415 33.3414C75.9416 33.4847 75.9843 33.6248 76.0643 33.7437C76.1442 33.8626 76.2578 33.9551 76.3906 34.0092C76.5233 34.0634 76.6692 34.0769 76.8097 34.0479C76.9501 34.0189 77.0787 33.9488 77.1791 33.8465C77.2795 33.7442 77.3472 33.6144 77.3734 33.4735C77.3997 33.3326 77.3834 33.1872 77.3266 33.0556C77.2698 32.924 77.1751 32.8123 77.0546 32.7347C76.934 32.6572 76.7931 32.6172 76.6497 32.6199C76.5555 32.6199 76.4623 32.6387 76.3755 32.6751C76.2886 32.7115 76.2099 32.7649 76.144 32.8321C76.078 32.8993 76.0262 32.9789 75.9914 33.0664C75.9566 33.1538 75.9397 33.2474 75.9415 33.3414Z" fill="#0091B5"/>
<path d="M104.532 14.1802C104.532 14.3613 104.586 14.5384 104.687 14.689C104.788 14.8396 104.931 14.9569 105.098 15.0262C105.266 15.0956 105.45 15.1137 105.628 15.0784C105.806 15.043 105.969 14.9558 106.097 14.8277C106.225 14.6997 106.312 14.5365 106.348 14.3589C106.383 14.1812 106.365 13.9971 106.296 13.8298C106.226 13.6624 106.109 13.5194 105.958 13.4188C105.807 13.3182 105.63 13.2645 105.449 13.2645C105.206 13.2645 104.973 13.3609 104.801 13.5327C104.629 13.7044 104.532 13.9373 104.532 14.1802Z" fill="#0091B5"/>
<path d="M139.761 59.8564C139.765 60.0895 139.86 60.3118 140.026 60.4753C140.192 60.6389 140.416 60.7305 140.65 60.7305C140.882 60.7305 141.104 60.6384 141.268 60.4745C141.432 60.3105 141.524 60.0882 141.524 59.8564C141.525 59.6233 141.433 59.3995 141.269 59.2333C141.105 59.0672 140.883 58.972 140.65 58.9684C140.414 58.9684 140.188 59.0619 140.021 59.2285C139.855 59.395 139.761 59.6209 139.761 59.8564Z" fill="#0091B5"/>
<path d="M177.669 0.707569C177.667 0.801656 177.684 0.895168 177.719 0.982628C177.754 1.07009 177.806 1.14974 177.872 1.21693C177.938 1.28411 178.016 1.33748 178.103 1.3739C178.19 1.41033 178.283 1.42908 178.377 1.42907C178.521 1.43182 178.662 1.39186 178.782 1.31427C178.903 1.23669 178.998 1.125 179.054 0.993426C179.111 0.861856 179.127 0.71637 179.101 0.575512C179.075 0.434654 179.007 0.304799 178.907 0.202503C178.806 0.100207 178.678 0.0301025 178.537 0.00112029C178.397 -0.0278619 178.251 -0.014408 178.118 0.0397687C177.986 0.0939455 177.872 0.186391 177.792 0.305322C177.712 0.424253 177.669 0.564285 177.669 0.707569Z" fill="#0091B5"/>
<path d="M215.661 45.7317C215.661 46.0062 215.742 46.2744 215.895 46.5026C216.047 46.7308 216.264 46.9086 216.518 47.0136C216.772 47.1186 217.051 47.1461 217.32 47.0926C217.59 47.039 217.837 46.9069 218.031 46.7128C218.226 46.5188 218.358 46.2716 218.411 46.0024C218.465 45.7333 218.437 45.4543 218.332 45.2008C218.227 44.9472 218.049 44.7305 217.821 44.5781C217.593 44.4256 217.324 44.3442 217.049 44.3442C216.681 44.3442 216.328 44.4904 216.068 44.7506C215.807 45.0108 215.661 45.3637 215.661 45.7317Z" fill="#0091B5"/>
<path d="M257.999 41.5831C258.865 41.5831 259.568 40.8812 259.568 40.0153C259.568 39.1493 258.865 38.4474 257.999 38.4474C257.132 38.4474 256.43 39.1493 256.43 40.0153C256.43 40.8812 257.132 41.5831 257.999 41.5831Z" fill="#0091B5"/>
<path d="M283.257 44.4413C283.254 44.7492 283.343 45.051 283.512 45.3084C283.682 45.5658 283.924 45.7671 284.208 45.8869C284.491 46.0066 284.805 46.0394 285.107 45.981C285.41 45.9226 285.688 45.7757 285.907 45.5589C286.126 45.3422 286.275 45.0653 286.337 44.7635C286.398 44.4617 286.368 44.1485 286.25 43.8637C286.133 43.579 285.934 43.3354 285.678 43.1641C285.422 42.9927 285.121 42.9012 284.812 42.9012C284.402 42.9012 284.009 43.063 283.718 43.3514C283.426 43.6399 283.261 44.0316 283.257 44.4413Z" fill="#0091B5"/>
<path d="M292.574 57.2757C292.574 57.5501 292.656 57.8184 292.808 58.0465C292.961 58.2747 293.178 58.4525 293.432 58.5576C293.685 58.6626 293.965 58.69 294.234 58.6365C294.503 58.583 294.751 58.4508 294.945 58.2568C295.139 58.0627 295.271 57.8155 295.325 57.5464C295.379 57.2772 295.351 56.9982 295.246 56.7447C295.141 56.4912 294.963 56.2745 294.735 56.122C294.506 55.9696 294.238 55.8882 293.963 55.8882C293.595 55.8882 293.242 56.0344 292.981 56.2946C292.721 56.5548 292.574 56.9077 292.574 57.2757Z" fill="#0091B5"/>
<path d="M314.82 90.0482C314.822 90.2287 314.878 90.4043 314.981 90.5531C315.083 90.7018 315.227 90.817 315.395 90.8842C315.563 90.9514 315.746 90.9676 315.923 90.9307C316.1 90.8938 316.262 90.8055 316.389 90.6769C316.516 90.5483 316.602 90.3851 316.636 90.2079C316.67 90.0306 316.651 89.8472 316.581 89.6807C316.512 89.5142 316.394 89.372 316.244 89.2719C316.093 89.1719 315.917 89.1186 315.736 89.1185C315.615 89.1185 315.494 89.1427 315.382 89.1895C315.27 89.2364 315.168 89.3051 315.083 89.3916C314.998 89.4782 314.931 89.5807 314.885 89.6935C314.84 89.8062 314.818 89.9267 314.82 90.0482Z" fill="#0091B5"/>
<path d="M358.893 110.708C358.893 111.179 359.081 111.631 359.414 111.964C359.747 112.297 360.199 112.484 360.671 112.484C361.142 112.484 361.594 112.297 361.927 111.964C362.261 111.631 362.448 111.179 362.448 110.708C362.448 110.237 362.261 109.785 361.927 109.452C361.594 109.119 361.142 108.932 360.671 108.932C360.199 108.932 359.747 109.119 359.414 109.452C359.081 109.785 358.893 110.237 358.893 110.708Z" fill="#0091B5"/>
<path d="M360.365 158.132C360.362 158.265 360.399 158.395 360.471 158.506C360.542 158.617 360.645 158.705 360.767 158.758C360.888 158.81 361.023 158.825 361.153 158.801C361.283 158.777 361.403 158.715 361.498 158.622C361.592 158.53 361.657 158.411 361.684 158.281C361.711 158.152 361.699 158.017 361.649 157.895C361.599 157.772 361.513 157.667 361.403 157.594C361.293 157.52 361.164 157.48 361.032 157.48C360.945 157.478 360.858 157.494 360.778 157.526C360.697 157.558 360.623 157.606 360.561 157.666C360.499 157.727 360.45 157.8 360.416 157.88C360.382 157.96 360.365 158.046 360.365 158.132Z" fill="#0091B5"/>
<path d="M344.438 174.713C344.438 174.987 344.52 175.256 344.672 175.484C344.825 175.712 345.042 175.89 345.295 175.995C345.549 176.1 345.828 176.127 346.098 176.074C346.367 176.02 346.614 175.888 346.809 175.694C347.003 175.5 347.135 175.253 347.189 174.984C347.242 174.714 347.215 174.435 347.11 174.182C347.005 173.928 346.827 173.712 346.598 173.559C346.37 173.407 346.101 173.325 345.827 173.325C345.459 173.325 345.105 173.472 344.845 173.732C344.585 173.992 344.438 174.345 344.438 174.713Z" fill="#0091B5"/>
<path d="M376.945 198.37C376.945 198.636 377.05 198.891 377.237 199.081C377.424 199.271 377.678 199.379 377.945 199.383C378.213 199.383 378.471 199.276 378.661 199.086C378.851 198.896 378.958 198.638 378.958 198.37C378.955 198.103 378.846 197.849 378.657 197.662C378.467 197.475 378.211 197.371 377.945 197.371C377.813 197.371 377.683 197.397 377.562 197.447C377.441 197.497 377.33 197.57 377.238 197.663C377.145 197.756 377.071 197.866 377.021 197.987C376.971 198.109 376.945 198.238 376.945 198.37Z" fill="#0091B5"/>
<path d="M314.375 222.401C314.375 222.626 314.442 222.846 314.567 223.033C314.692 223.22 314.87 223.366 315.078 223.452C315.286 223.538 315.515 223.561 315.736 223.517C315.957 223.473 316.16 223.365 316.319 223.205C316.478 223.046 316.587 222.844 316.631 222.623C316.675 222.402 316.652 222.173 316.566 221.966C316.48 221.758 316.334 221.58 316.147 221.455C315.959 221.33 315.739 221.263 315.514 221.263C315.212 221.263 314.923 221.383 314.709 221.596C314.495 221.81 314.375 222.099 314.375 222.401Z" fill="#0091B5"/>
<path d="M350.701 236.775C350.701 237.143 350.847 237.496 351.107 237.756C351.368 238.017 351.721 238.163 352.089 238.163C352.458 238.163 352.811 238.017 353.071 237.756C353.332 237.496 353.478 237.143 353.478 236.775C353.478 236.407 353.332 236.054 353.071 235.794C352.811 235.534 352.458 235.388 352.089 235.388C351.721 235.388 351.368 235.534 351.107 235.794C350.847 236.054 350.701 236.407 350.701 236.775Z" fill="#0091B5"/>
<path d="M334.107 251.178C334.104 251.434 334.178 251.685 334.319 251.9C334.46 252.114 334.661 252.281 334.898 252.381C335.134 252.48 335.395 252.507 335.647 252.458C335.899 252.408 336.13 252.285 336.311 252.104C336.493 251.923 336.616 251.691 336.666 251.44C336.715 251.188 336.688 250.928 336.589 250.691C336.489 250.455 336.322 250.253 336.107 250.113C335.893 249.972 335.641 249.898 335.385 249.901C335.046 249.901 334.721 250.036 334.481 250.275C334.242 250.514 334.107 250.839 334.107 251.178Z" fill="#0091B5"/>
<path d="M14.4412 243.741C14.4412 244.015 14.5226 244.283 14.6752 244.511C14.8278 244.74 15.0446 244.917 15.2984 245.022C15.5521 245.127 15.8313 245.155 16.1006 245.101C16.37 245.048 16.6174 244.916 16.8116 244.722C17.0058 244.528 17.1381 244.28 17.1916 244.011C17.2452 243.742 17.2177 243.463 17.1126 243.21C17.0075 242.956 16.8296 242.739 16.6012 242.587C16.3729 242.434 16.1044 242.353 15.8297 242.353C15.4615 242.353 15.1083 242.499 14.8479 242.759C14.5875 243.02 14.4412 243.373 14.4412 243.741Z" fill="#FDB913"/>
<path d="M15.9131 207.61C15.9104 207.929 16.0025 208.242 16.1778 208.508C16.3531 208.775 16.6037 208.983 16.8978 209.107C17.1919 209.231 17.5162 209.265 17.8295 209.204C18.1429 209.144 18.4312 208.992 18.6579 208.767C18.8845 208.543 19.0393 208.256 19.1026 207.943C19.1659 207.631 19.1348 207.306 19.0133 207.012C18.8918 206.717 18.6854 206.464 18.4202 206.287C18.155 206.109 17.8431 206.015 17.5239 206.015C17.313 206.013 17.1039 206.053 16.9085 206.132C16.7132 206.212 16.5355 206.329 16.3858 206.477C16.236 206.625 16.1171 206.802 16.036 206.996C15.9549 207.191 15.9131 207.4 15.9131 207.61Z" fill="#FDB913"/>
<path d="M0.708252 174.13C0.708227 174.396 0.813115 174.652 1.00022 174.842C1.18733 175.031 1.44161 175.139 1.70803 175.143C1.97687 175.143 2.2347 175.036 2.4248 174.846C2.6149 174.656 2.7217 174.399 2.7217 174.13C2.7217 173.862 2.6149 173.604 2.4248 173.414C2.2347 173.224 1.97687 173.117 1.70803 173.117C1.44161 173.121 1.18733 173.229 1.00022 173.419C0.813115 173.608 0.708227 173.864 0.708252 174.13Z" fill="#FDB913"/>
<path d="M15.1356 158.035C15.1383 158.202 15.1903 158.364 15.2851 158.502C15.3798 158.639 15.513 158.745 15.668 158.807C15.823 158.869 15.9929 158.884 16.1562 158.85C16.3196 158.816 16.4693 158.734 16.5863 158.615C16.7034 158.496 16.7827 158.345 16.8143 158.182C16.8459 158.018 16.8283 157.848 16.7638 157.694C16.6993 157.541 16.5907 157.409 16.4518 157.317C16.3128 157.224 16.1496 157.175 15.9826 157.175C15.8702 157.175 15.7589 157.197 15.6553 157.241C15.5516 157.284 15.4576 157.348 15.3787 157.428C15.2999 157.508 15.2378 157.603 15.1961 157.707C15.1543 157.811 15.1338 157.923 15.1356 158.035Z" fill="#FDB913"/>
<path d="M15.1077 131.076C15.105 131.368 15.189 131.653 15.349 131.897C15.5091 132.141 15.738 132.331 16.0067 132.445C16.2754 132.558 16.5717 132.589 16.8582 132.534C17.1446 132.479 17.4082 132.34 17.6154 132.135C17.8227 131.93 17.9642 131.668 18.0221 131.382C18.0801 131.097 18.0517 130.8 17.9408 130.531C17.8298 130.261 17.6411 130.03 17.3988 129.868C17.1565 129.706 16.8713 129.619 16.5796 129.619C16.1917 129.619 15.8194 129.772 15.5437 130.045C15.2681 130.318 15.1114 130.689 15.1077 131.076Z" fill="#FDB913"/>
<path d="M36.9085 102.993C36.9002 103.333 36.9933 103.667 37.1758 103.953C37.3584 104.239 37.6222 104.464 37.9334 104.6C38.2447 104.735 38.5894 104.775 38.9234 104.714C39.2574 104.653 39.5656 104.494 39.8086 104.257C40.0517 104.02 40.2185 103.716 40.2879 103.384C40.3572 103.052 40.3259 102.706 40.198 102.392C40.07 102.078 39.8512 101.809 39.5695 101.619C39.2878 101.43 38.956 101.329 38.6164 101.328C38.1706 101.328 37.7423 101.502 37.4232 101.814C37.1041 102.125 36.9193 102.548 36.9085 102.993Z" fill="#FDB913"/>
<path d="M44.99 71.0534C44.9928 71.3739 45.0904 71.6864 45.2706 71.9515C45.4508 72.2167 45.7054 72.4226 46.0025 72.5433C46.2996 72.6641 46.6258 72.6942 46.9401 72.63C47.2543 72.5658 47.5425 72.4101 47.7683 72.1826C47.9941 71.955 48.1475 71.6657 48.2091 71.3512C48.2706 71.0367 48.2377 70.711 48.1143 70.4152C47.9909 70.1193 47.7827 69.8666 47.5158 69.6889C47.249 69.5111 46.9354 69.4162 46.6147 69.4162C46.4002 69.4162 46.1878 69.4586 45.9897 69.5411C45.7917 69.6235 45.612 69.7444 45.461 69.8966C45.3099 70.0488 45.1905 70.2294 45.1097 70.4279C45.0289 70.6265 44.9882 70.8391 44.99 71.0534Z" fill="#FDB913"/>
<path d="M82.94 72.3715C83.4078 72.3715 83.7871 71.9926 83.7871 71.5251C83.7871 71.0577 83.4078 70.6788 82.94 70.6788C82.4722 70.6788 82.093 71.0577 82.093 71.5251C82.093 71.9926 82.4722 72.3715 82.94 72.3715Z" fill="#FDB913"/>
<path d="M96.9092 28.6934C96.9092 29.0034 97.0012 29.3066 97.1736 29.5644C97.346 29.8222 97.5911 30.0232 97.8778 30.1419C98.1645 30.2605 98.48 30.2916 98.7844 30.2311C99.0888 30.1706 99.3684 30.0213 99.5878 29.802C99.8072 29.5827 99.9567 29.3034 100.017 28.9992C100.078 28.6951 100.047 28.3798 99.9279 28.0934C99.8092 27.8069 99.6081 27.562 99.35 27.3897C99.092 27.2174 98.7886 27.1255 98.4783 27.1255C98.0632 27.1291 97.6662 27.2955 97.3728 27.5887C97.0793 27.882 96.9128 28.2787 96.9092 28.6934Z" fill="#FDB913"/>
<path d="M126.5 16.2753C126.5 16.7058 126.671 17.1187 126.976 17.4232C127.281 17.7276 127.694 17.8986 128.125 17.8986C128.556 17.8986 128.969 17.7276 129.273 17.4232C129.578 17.1187 129.749 16.7058 129.749 16.2753C129.749 15.8447 129.578 15.4318 129.273 15.1274C128.969 14.823 128.556 14.6519 128.125 14.6519C127.694 14.6519 127.281 14.823 126.976 15.1274C126.671 15.4318 126.5 15.8447 126.5 16.2753Z" fill="#FDB913"/>
<path d="M150.092 15.9701C150.092 16.2143 150.165 16.4531 150.3 16.6562C150.436 16.8592 150.629 17.0175 150.855 17.111C151.081 17.2044 151.329 17.2289 151.569 17.1812C151.809 17.1336 152.029 17.016 152.202 16.8433C152.375 16.6706 152.492 16.4505 152.54 16.211C152.588 15.9715 152.563 15.7232 152.47 15.4975C152.376 15.2719 152.218 15.079 152.014 14.9433C151.811 14.8077 151.572 14.7352 151.328 14.7352C151 14.7352 150.686 14.8653 150.454 15.0969C150.222 15.3285 150.092 15.6426 150.092 15.9701Z" fill="#FDB913"/>
<path d="M187.139 56.3876C187.137 56.7099 187.23 57.0256 187.407 57.2947C187.585 57.5638 187.839 57.774 188.136 57.8986C188.433 58.0232 188.761 58.0565 189.078 57.9943C189.394 57.9321 189.685 57.7772 189.913 57.5493C190.141 57.3215 190.296 57.031 190.358 56.7148C190.42 56.3986 190.387 56.071 190.262 55.7738C190.138 55.4766 189.927 55.2233 189.658 55.0459C189.389 54.8686 189.073 54.7754 188.75 54.7781C188.323 54.7781 187.913 54.9477 187.611 55.2495C187.309 55.5514 187.139 55.9608 187.139 56.3876Z" fill="#FDB913"/>
<path d="M224.201 24.3367C224.199 24.4246 224.215 24.5121 224.248 24.5937C224.281 24.6754 224.33 24.7496 224.392 24.8118C224.454 24.874 224.528 24.923 224.61 24.9558C224.692 24.9886 224.779 25.0045 224.867 25.0027C225.044 25.0027 225.214 24.9325 225.339 24.8076C225.464 24.6827 225.534 24.5133 225.534 24.3367C225.53 24.1611 225.459 23.9938 225.335 23.8696C225.21 23.7455 225.043 23.6742 224.867 23.6707C224.691 23.6707 224.521 23.7408 224.396 23.8657C224.271 23.9906 224.201 24.16 224.201 24.3367Z" fill="#FDB913"/>
<path d="M255 52.9883C255.667 52.9883 256.208 52.4478 256.208 51.7812C256.208 51.1145 255.667 50.574 255 50.574C254.332 50.574 253.792 51.1145 253.792 51.7812C253.792 52.4478 254.332 52.9883 255 52.9883Z" fill="#FDB913"/>
<path d="M283.313 51.6979C283.811 51.6979 284.215 51.2941 284.215 50.796C284.215 50.2979 283.811 49.8942 283.313 49.8942C282.814 49.8942 282.41 50.2979 282.41 50.796C282.41 51.2941 282.814 51.6979 283.313 51.6979Z" fill="#FDB913"/>
<path d="M321.582 68.098C321.582 68.2221 321.619 68.3434 321.688 68.4463C321.758 68.5493 321.856 68.6293 321.971 68.6761C322.086 68.7229 322.212 68.7344 322.334 68.7092C322.456 68.684 322.567 68.6231 322.654 68.5344C322.74 68.4457 322.799 68.3331 322.821 68.2111C322.844 68.0891 322.83 67.9631 322.78 67.8493C322.731 67.7355 322.648 67.639 322.544 67.5721C322.439 67.5052 322.317 67.4709 322.193 67.4737C322.03 67.4773 321.874 67.5447 321.76 67.6614C321.646 67.7781 321.582 67.9348 321.582 68.098Z" fill="#FDB913"/>
<path d="M345.035 96.3474C345.902 96.3474 346.604 95.6454 346.604 94.7795C346.604 93.9136 345.902 93.2117 345.035 93.2117C344.169 93.2117 343.466 93.9136 343.466 94.7795C343.466 95.6454 344.169 96.3474 345.035 96.3474Z" fill="#FDB913"/>
<path d="M347.215 122.224C347.215 122.564 347.316 122.897 347.506 123.18C347.695 123.463 347.964 123.683 348.278 123.814C348.593 123.944 348.939 123.978 349.273 123.912C349.607 123.845 349.914 123.681 350.155 123.441C350.395 123.2 350.559 122.894 350.626 122.56C350.692 122.226 350.658 121.88 350.528 121.566C350.398 121.251 350.177 120.983 349.894 120.794C349.611 120.605 349.278 120.504 348.937 120.504C348.48 120.504 348.043 120.685 347.72 121.008C347.397 121.33 347.215 121.768 347.215 122.224Z" fill="#FDB913"/>
<path d="M360.698 154.622C360.698 154.939 360.824 155.242 361.048 155.466C361.272 155.69 361.576 155.815 361.893 155.815C362.209 155.815 362.513 155.69 362.737 155.466C362.961 155.242 363.087 154.939 363.087 154.622C363.087 154.306 362.961 154.002 362.737 153.778C362.513 153.555 362.209 153.429 361.893 153.429C361.576 153.429 361.272 153.555 361.048 153.778C360.824 154.002 360.698 154.306 360.698 154.622Z" fill="#FDB913"/>
<path d="M331.024 189.295C331.024 189.548 331.099 189.795 331.24 190.005C331.38 190.215 331.58 190.378 331.813 190.475C332.046 190.571 332.303 190.597 332.551 190.547C332.799 190.498 333.027 190.377 333.205 190.198C333.384 190.02 333.506 189.792 333.555 189.544C333.604 189.297 333.579 189.04 333.482 188.807C333.385 188.574 333.222 188.374 333.012 188.234C332.802 188.094 332.555 188.019 332.302 188.019C331.963 188.019 331.638 188.153 331.399 188.393C331.159 188.632 331.024 188.957 331.024 189.295Z" fill="#FDB913"/>
<path d="M359.615 207.652C360.022 207.652 360.351 207.323 360.351 206.917C360.351 206.511 360.022 206.181 359.615 206.181C359.209 206.181 358.879 206.511 358.879 206.917C358.879 207.323 359.209 207.652 359.615 207.652Z" fill="#FDB913"/>
<path d="M313.973 219.848C313.971 219.944 313.988 220.039 314.024 220.128C314.059 220.218 314.112 220.299 314.179 220.367C314.247 220.436 314.327 220.49 314.415 220.527C314.504 220.564 314.599 220.583 314.695 220.583C314.89 220.583 315.077 220.506 315.215 220.368C315.353 220.23 315.431 220.043 315.431 219.848C315.431 219.752 315.412 219.657 315.375 219.569C315.337 219.48 315.283 219.4 315.214 219.333C315.146 219.266 315.065 219.213 314.975 219.177C314.886 219.142 314.791 219.125 314.695 219.127C314.503 219.127 314.32 219.203 314.184 219.338C314.049 219.473 313.973 219.657 313.973 219.848Z" fill="#FDB913"/>
<path d="M350.562 230.809C350.562 231.118 350.685 231.415 350.903 231.633C351.122 231.852 351.419 231.975 351.728 231.975C352.038 231.975 352.334 231.852 352.553 231.633C352.772 231.415 352.895 231.118 352.895 230.809C352.895 230.5 352.772 230.204 352.553 229.985C352.334 229.766 352.038 229.644 351.728 229.644C351.419 229.644 351.122 229.766 350.903 229.985C350.685 230.204 350.562 230.5 350.562 230.809Z" fill="#FDB913"/>
<path d="M347.701 252.274C347.701 252.361 347.719 252.448 347.752 252.529C347.786 252.609 347.835 252.683 347.897 252.745C347.959 252.806 348.032 252.856 348.113 252.889C348.194 252.922 348.28 252.94 348.368 252.94C348.5 252.94 348.629 252.901 348.738 252.827C348.848 252.754 348.933 252.65 348.984 252.529C349.034 252.407 349.047 252.273 349.022 252.144C348.996 252.015 348.932 251.896 348.839 251.803C348.746 251.71 348.627 251.646 348.498 251.621C348.369 251.595 348.235 251.608 348.113 251.658C347.991 251.709 347.887 251.794 347.814 251.904C347.741 252.013 347.701 252.142 347.701 252.274Z" fill="#FDB913"/>
</g>
<defs>
<clipPath id="clip0">
<rect width="379" height="262" fill="white"/>
</clipPath>
</defs>
</svg>
